# xmcd
#
# Track frame offsets:
#	150
#	1825
#	2125
#	3872
#	5490
#	7050
#	9012
#	10852
#	12615
#	12915
#	14617
#	16302
#	18007
#	20185
#	22027
#	24055
#	24355
#	25052
#	25715
#	26437
#	27135
#	27885
#	28597
#	29262
#	29995
#	30585
#	30887
#	31605
#	32310
#	33062
#	33757
#	34460
#	35252
#	35962
#	36657
#	37330
#	37632
#	38902
#	39977
#	41157
#	42247
#	42550
#	43730
#	44885
#	46155
#	47347
#	47647
#	48812
#	50020
#	51370
#	52647
#	53900
#	54202
#	55352
#	56530
#	57647
#	58772
#	59902
#	60205
#	61965
#	63662
#	65347
#	67095
#	67400
#	69235
#	71050
#	72837
#	74550
#	74852
#	76667
#	78472
#	80532
#	82315
#	82620
#	84427
#	86082
#	88067
#	89755
#	91615
#	92320
#	98100
#	116795
#	121090
#	147057
#	149900
#	172465
#	174722
#	198750
#
# Disc length: 2662 seconds
#
# Revision: 1
# Processed by: cddbd v1.5.1PL0 Copyright (c) Steve Scherf et al.
# Submitted via: CDex 1.50Beta5
#
DISCID=9d0a6458
DTITLE=TOEICはじめてのリスニング - TOEICはじめてのリスニング 1
DYEAR=1900
DGENRE=
TTITLE0=TOEICはじめてのリスニング/1
TTITLE1=TOEICはじめてのリスニング/2
TTITLE2=TOEICはじめてのリスニング/3
TTITLE3=TOEICはじめてのリスニング/4
TTITLE4=TOEICはじめてのリスニング/5
TTITLE5=TOEICはじめてのリスニング/6
TTITLE6=TOEICはじめてのリスニング/7
TTITLE7=TOEICはじめてのリスニング/8
TTITLE8=TOEICはじめてのリスニング/9
TTITLE9=TOEICはじめてのリスニング/10
TTITLE10=TOEICはじめてのリスニング/11
TTITLE11=TOEICはじめてのリスニング/12
TTITLE12=TOEICはじめてのリスニング/13
TTITLE13=TOEICはじめてのリスニング/14
TTITLE14=TOEICはじめてのリスニング/15
TTITLE15=TOEICはじめてのリスニング/16
TTITLE16=TOEICはじめてのリスニング/17
TTITLE17=TOEICはじめてのリスニング/18
TTITLE18=TOEICはじめてのリスニング/19
TTITLE19=TOEICはじめてのリスニング/20
TTITLE20=TOEICはじめてのリスニング/21
TTITLE21=TOEICはじめてのリスニング/22
TTITLE22=TOEICはじめてのリスニング/23
TTITLE23=TOEICはじめてのリスニング/24
TTITLE24=TOEICはじめてのリスニング/25
TTITLE25=TOEICはじめてのリスニング/26
TTITLE26=TOEICはじめてのリスニング/27
TTITLE27=TOEICはじめてのリスニング/28
TTITLE28=TOEICはじめてのリスニング/29
TTITLE29=TOEICはじめてのリスニング/30
TTITLE30=TOEICはじめてのリスニング/31
TTITLE31=TOEICはじめてのリスニング/32
TTITLE32=TOEICはじめてのリスニング/33
TTITLE33=TOEICはじめてのリスニング/34
TTITLE34=TOEICはじめてのリスニング/35
TTITLE35=TOEICはじめてのリスニング/36
TTITLE36=TOEICはじめてのリスニング/37
TTITLE37=TOEICはじめてのリスニング/38
TTITLE38=TOEICはじめてのリスニング/39
TTITLE39=TOEICはじめてのリスニング/40
TTITLE40=TOEICはじめてのリスニング/41
TTITLE41=TOEICはじめてのリスニング/42
TTITLE42=TOEICはじめてのリスニング/43
TTITLE43=TOEICはじめてのリスニング/44
TTITLE44=TOEICはじめてのリスニング/45
TTITLE45=TOEICはじめてのリスニング/46
TTITLE46=TOEICじめてのリスニング/47
TTITLE47=TOEICはじめてのリスニング/48
TTITLE48=TOEICはじめてのリスニング/49
TTITLE49=TOEICはじめてのリスニング/50
TTITLE50=TOEICはじめてのリスニング/51
TTITLE51=TOEICはじめてのリスニング/52
TTITLE52=TOEICはじめてのリスニング/53
TTITLE53=TOEICはじめてのリスニング/54
TTITLE54=TOEICはじめてのリスニング/55
TTITLE55=TOEICはじめてのリスニング/56
TTITLE56=TOEICはじめてのリスニング/57
TTITLE57=TOEICはじめてのリスニング/58
TTITLE58=TOEICはじめてのリスニング/59
TTITLE59=TOEICはじめてのリスニング/60
TTITLE60=TOEICはじめてのリスニング/61
TTITLE61=TOEICはじめてのリスニング/62
TTITLE62=TOEICはじめてのリスニング/63
TTITLE63=TOEICはじめてのリスニング/64
TTITLE64=TOEICはじめてのリスニング/65
TTITLE65=TOEICはじめてのリスニング/66
TTITLE66=TOEICはじめてのリスニング/67
TTITLE67=TOEICはじめてのリスニング/68
TTITLE68=TOEICはじめてのリスニング/69
TTITLE69=TOEICはじめてのリスニング/70
TTITLE70=TOEICはじめてのリスニング/71
TTITLE71=TOEICはじめてのリスニング/72
TTITLE72=TOEICはじめてのリスニング/73
TTITLE73=TOEICはじめてのリスニング/74
TTITLE74=TOEICはじめてのリスニング/75
TTITLE75=TOEICはじめてのリスニング/76
TTITLE76=TOEICはじめてのリスニング/77
TTITLE77=TOEICはじめてのリスニング/78
TTITLE78=TOEICはじめてのリスニング/79
TTITLE79=TOEICはじめてのリスニング/80
TTITLE80=TOEICはじめてのリスニング/81
TTITLE81=TOEICはじめてのリスニング/82
TTITLE82=TOEICはじめてのリスニング/83
TTITLE83=TOEICはじめてのリスニング/84
TTITLE84=TOEICはじめてのリスニング/85
TTITLE85=TOEICはじめてのリスニング/86
TTITLE86=TOEICはじめてのリスニング/87
TTITLE87=TOEICはじめてのリスニング/88
EXTD=
EXTT0=
EXTT1=
EXTT2=
EXTT3=
EXTT4=
EXTT5=
EXTT6=
EXTT7=
EXTT8=
EXTT9=
EXTT10=
EXTT11=
EXTT12=
EXTT13=
EXTT14=
EXTT15=
EXTT16=
EXTT17=
EXTT18=
EXTT19=
EXTT20=
EXTT21=
EXTT22=
EXTT23=
EXTT24=
EXTT25=
EXTT26=
EXTT27=
EXTT28=
EXTT29=
EXTT30=
EXTT31=
EXTT32=
EXTT33=
EXTT34=
EXTT35=
EXTT36=
EXTT37=
EXTT38=
EXTT39=
EXTT40=
EXTT41=
EXTT42=
EXTT43=
EXTT44=
EXTT45=
EXTT46=
EXTT47=
EXTT48=
EXTT49=
EXTT50=
EXTT51=
EXTT52=
EXTT53=
EXTT54=
EXTT55=
EXTT56=
EXTT57=
EXTT58=
EXTT59=
EXTT60=
EXTT61=
EXTT62=
EXTT63=
EXTT64=
EXTT65=
EXTT66=
EXTT67=
EXTT68=
EXTT69=
EXTT70=
EXTT71=
EXTT72=
EXTT73=
EXTT74=
EXTT75=
EXTT76=
EXTT77=
EXTT78=
EXTT79=
EXTT80=
EXTT81=
EXTT82=
EXTT83=
EXTT84=
EXTT85=
EXTT86=
EXTT87=
PLAYORDER=
